<?xml version="1.0" encoding="UTF-8"?>
<svg version="1.1" xmlns="http://www.w3.org/2000/svg" width="86" height="82">
<path d="M0 0 C28.38 0 56.76 0 86 0 C86 27.06 86 54.12 86 82 C57.62 82 29.24 82 0 82 C0 54.94 0 27.88 0 0 Z " fill="#FDFEFE" transform="translate(0,0)"/>
<path d="M0 0 C2.38376583 1.04533652 3.75251092 2.26415632 5.58291626 4.11505127 C6.60352142 5.13599632 6.60352142 5.13599632 7.64474487 6.17756653 C8.36780823 6.91611374 9.09087158 7.65466095 9.83584595 8.41558838 C10.58485168 9.16883896 11.33385742 9.92208954 12.1055603 10.69816589 C14.49674139 13.10614257 16.8772826 15.52433958 19.25772095 17.94293213 C20.87682271 19.57707951 22.49660627 21.21055168 24.11709595 22.84332275 C28.08858277 26.84789059 32.05138305 30.8609002 36.00772095 34.88043213 C34.63156734 37.97222348 33.05613649 40.07681966 30.65957642 42.45562744 C29.97902191 43.13603088 29.29846741 43.81643433 28.59729004 44.51745605 C27.86390411 45.24051941 27.13051819 45.96358276 26.37490845 46.70855713 C25.62307281 47.45756287 24.87123718 48.2065686 24.09661865 48.97827148 C21.69664194 51.36706233 19.28980086 53.7488011 16.88272095 56.13043213 C15.25335742 57.74976382 13.6244456 59.36955015 11.9960022 60.98980713 C8.00513289 64.95863717 4.0086068 68.92170112 0.00772095 72.88043213 C-4.9782078 68.70265448 -9.65932189 64.34915936 -14.2383728 59.73199463 C-14.89434952 59.07460297 -15.55032623 58.4172113 -16.22618103 57.73989868 C-18.29643173 55.66410351 -20.36315556 53.58483786 -22.42977905 51.50543213 C-23.84295767 50.08723132 -25.25636699 48.66926036 -26.67001343 47.25152588 C-30.1134397 43.79714436 -33.55371004 40.33964843 -36.99227905 36.88043213 C-35.6367894 33.86395215 -34.11172615 31.73666525 -31.79940796 29.38116455 C-31.15178497 28.71755417 -30.50416199 28.05394379 -29.83691406 27.370224 C-29.13795013 26.66589737 -28.43898621 25.96157074 -27.71884155 25.23590088 C-26.99868866 24.50671951 -26.27853577 23.77753815 -25.53656006 23.02626038 C-24.01445007 21.48966028 -22.48952759 19.95584177 -20.96200562 18.42462158 C-18.62067106 16.07134145 -16.29863291 13.70005825 -13.97665405 11.32769775 C-12.49603492 9.83762019 -11.01430143 8.3486489 -9.53134155 6.86090088 C-8.83642609 6.14645309 -8.14151062 5.43200531 -7.42553711 4.69590759 C-6.7716098 4.04805801 -6.1176825 3.40020844 -5.44393921 2.73272705 C-4.87261261 2.1563298 -4.30128601 1.57993256 -3.71264648 0.98606873 C-1.99227905 -0.11956787 -1.99227905 -0.11956787 0 0 Z " fill="#E63B55" transform="translate(43.992279052734375,5.11956787109375)"/>
<path d="M0 0 C3.46629835 1.48653506 5.69022036 3.45722351 8.328125 6.1328125 C9.12734375 6.93847656 9.9265625 7.74414062 10.75 8.57421875 C11.575 9.41597656 12.4 10.25773437 13.25 11.125 C14.09046875 11.97449219 14.9309375 12.82398438 15.796875 13.69921875 C17.86915683 15.79504923 19.93662393 17.89540713 22 20 C19.26908567 22.94629082 17.40567659 23.62156586 13.4375 24.4375 C12.28765625 24.68628906 11.1378125 24.93507813 9.953125 25.19140625 C7.89058739 25.61837476 5.82639295 26.03416895 3.75976562 26.44091797 C-10.3968042 28.58654521 -10.3968042 28.58654521 -21.3515625 36.875 C-22.63954176 38.97792098 -22.63954176 38.97792098 -24 42 C-29.03043332 37.77883845 -33.79239333 33.39019121 -38.4375 28.75 C-39.07365234 28.12609375 -39.70980469 27.5021875 -40.36523438 26.859375 C-40.96529297 26.26125 -41.56535156 25.663125 -42.18359375 25.046875 C-42.99654907 24.24008301 -42.99654907 24.24008301 -43.82592773 23.41699219 C-45 22 -45 22 -45 20 C-38.92620427 17.89581032 -32.88966248 16.58522 -26.5625 15.5625 C-12.69120827 13.39815186 -12.69120827 13.39815186 -2 5 C-0.680982 2.33466965 -0.680982 2.33466965 0 0 Z " fill="#FDFBFB" transform="translate(55,20)"/>
<path d="M0 0 C-3.75601718 3.8794205 -7.52802432 7.7422734 -11.31591797 11.59057617 C-12.60269737 12.9025324 -13.88495786 14.21893652 -15.16259766 15.53979492 C-16.99778879 17.43549469 -18.84853063 19.3147094 -20.703125 21.19140625 C-21.2730719 21.78715958 -21.8430188 22.3829129 -22.43023682 22.99671936 C-24.06738281 24.63500977 -24.06738281 24.63500977 -27 27 C-31.70298206 26.42595521 -34.249543 23.42503522 -37.40625 20.12109375 C-39 18 -39 18 -39.3125 14.875 C-36.91095227 9.61446687 -34.77091916 6.78199015 -29.5234375 4.46484375 C-24.36196423 2.64484775 -19.0660154 1.69472925 -13.6875 0.75 C-12.20540039 0.4715625 -12.20540039 0.4715625 -10.69335938 0.1875 C-9.27313477 -0.06773438 -9.27313477 -0.06773438 -7.82421875 -0.328125 C-6.54164185 -0.55870605 -6.54164185 -0.55870605 -5.2331543 -0.79394531 C-3 -1 -3 -1 0 0 Z " fill="#FDF9FA" transform="translate(72,47)"/>
<path d="M0 0 C3.465 2.97 3.465 2.97 7 6 C7.825 6.66 8.65 7.32 9.5 8 C11 10 11 10 11 12.9375 C9.61865896 17.16785695 8.14075078 19.70503692 4.25 22.05859375 C-1.85048348 24.85827992 -8.38873382 26.03229425 -14.9375 27.3125 C-15.87392334 27.49627197 -16.81034668 27.68004395 -17.77514648 27.86938477 C-19.10654663 28.11386353 -19.10654663 28.11386353 -20.46484375 28.36328125 C-21.265271 28.51063721 -22.06569824 28.65799316 -22.89038086 28.80981445 C-25 29 -25 29 -28 28 C-18.76 18.76 -9.52 9.52 0 0 Z " fill="#FDFAFB" transform="translate(43,7)"/>
<path d="M0 0 C0.66 0.66 1.32 1.32 2 2 C-3.92501102 6.42229083 -11.36234949 11.80247638 -19.16796875 10.69140625 C-21 10 -21 10 -23 8 C-21.515 7.76216797 -21.515 7.76216797 -20 7.51953125 C-12.40454644 6.2095726 -6.2706249 4.73496166 0 0 Z " fill="#E84F66" transform="translate(51,25)"/>
<path d="M0 0 C0.33 0.99 0.66 1.98 1 3 C-6.92 4.32 -14.84 5.64 -23 7 C-22.67 6.01 -22.34 5.02 -22 4 C-18.70896017 3.33021327 -15.4170703 2.66470178 -12.125 2 C-11.18785156 1.80921875 -10.25070313 1.6184375 -9.28515625 1.421875 C-8.38925781 1.24140625 -7.49335937 1.0609375 -6.5703125 0.875 C-5.32918701 0.62363281 -5.32918701 0.62363281 -4.06298828 0.3671875 C-2 0 -2 0 0 0 Z " fill="#E84861" transform="translate(72,43)"/>
</svg>
